<svg version="1.1" xmlns="http://www.w3.org/2000/svg" xmlns:xlink="http://www.w3.org/1999/xlink" width="740" height="500"><defs></defs><g><g transform="translate(-302,-166) scale(1,1)"><rect fill="#C0C0C0" stroke="none" x="319" y="343" width="180" height="160" opacity="0.2"></rect></g><g transform="translate(-302,-166) scale(1,1)"><rect fill="#ffffff" stroke="none" x="312" y="336" width="180" height="160"></rect></g><g transform="translate(-302,-166) scale(1,1)"><path fill="none" stroke="#000000" d="M 312 336 L 492 336 L 492 496 L 312 496 L 312 336 Z Z" stroke-miterlimit="10"></path></g><g transform="translate(-302,-166) scale(1,1)"><path fill="none" stroke="#000000" d="M 312 361 L 492 361" stroke-miterlimit="10"></path></g><g transform="translate(-302,-166) scale(1,1)"><path fill="none" stroke="#000000" d="M 312 399 L 492 399" stroke-miterlimit="10"></path></g><g transform="translate(-302,-166) scale(1,1)"><g><path fill="none" stroke="none"></path><text fill="#000000" stroke="none" font-family="Arial" font-size="13px" font-style="normal" font-weight="bold" text-decoration="none" x="335" y="355.5">ElevatorMotorController</text></g></g><g transform="translate(-302,-166) scale(1,1)"><g><path fill="none" stroke="none"></path><text fill="#000000" stroke="none" font-family="Arial" font-size="13px" font-style="normal" font-weight="normal" text-decoration="none" x="317" y="378.5">-motor_direction_up: int</text></g></g><g transform="translate(-302,-166) scale(1,1)"><g><path fill="none" stroke="none"></path><text fill="#000000" stroke="none" font-family="Arial" font-size="13px" font-style="normal" font-weight="normal" text-decoration="none" x="317" y="393.5">-motor_running: int</text></g></g><g transform="translate(-302,-166) scale(1,1)"><g><path fill="none" stroke="none"></path><text fill="#000000" stroke="none" font-family="Arial" font-size="13px" font-style="normal" font-weight="normal" text-decoration="none" x="317" y="416.5">+start_motor()</text></g></g><g transform="translate(-302,-166) scale(1,1)"><g><path fill="none" stroke="none"></path><text fill="#000000" stroke="none" font-family="Arial" font-size="13px" font-style="normal" font-weight="normal" text-decoration="none" x="317" y="431.5">+stop_motor()</text></g></g><g transform="translate(-302,-166) scale(1,1)"><g><path fill="none" stroke="none"></path><text fill="#000000" stroke="none" font-family="Arial" font-size="13px" font-style="normal" font-weight="normal" text-decoration="none" x="317" y="446.5">+get_motor_direction()</text></g></g><g transform="translate(-302,-166) scale(1,1)"><g><path fill="none" stroke="none"></path><text fill="#000000" stroke="none" font-family="Arial" font-size="13px" font-style="normal" font-weight="normal" text-decoration="none" x="317" y="461.5">+set_motor_direction(int)</text></g></g><g transform="translate(-302,-166) scale(1,1)"><g><path fill="none" stroke="none"></path><text fill="#000000" stroke="none" font-family="Arial" font-size="13px" font-style="normal" font-weight="normal" text-decoration="none" x="317" y="476.5">+is_motor_running()</text></g></g><g transform="translate(-302,-166) scale(1,1)"><rect fill="#C0C0C0" stroke="none" x="863" y="343" width="176" height="160" opacity="0.2"></rect></g><g transform="translate(-302,-166) scale(1,1)"><rect fill="#ffffff" stroke="none" x="856" y="336" width="176" height="160"></rect></g><g transform="translate(-302,-166) scale(1,1)"><path fill="none" stroke="#000000" d="M 856 336 L 1032 336 L 1032 496 L 856 496 L 856 336 Z Z" stroke-miterlimit="10"></path></g><g transform="translate(-302,-166) scale(1,1)"><path fill="none" stroke="#000000" d="M 856 361 L 1032 361" stroke-miterlimit="10"></path></g><g transform="translate(-302,-166) scale(1,1)"><path fill="none" stroke="#000000" d="M 856 384 L 1032 384" stroke-miterlimit="10"></path></g><g transform="translate(-302,-166) scale(1,1)"><g><path fill="none" stroke="none"></path><text fill="#000000" stroke="none" font-family="Arial" font-size="13px" font-style="normal" font-weight="bold" text-decoration="none" x="903" y="355.5">DoorController</text></g></g><g transform="translate(-302,-166) scale(1,1)"><g><path fill="none" stroke="none"></path><text fill="#000000" stroke="none" font-family="Arial" font-size="13px" font-style="normal" font-weight="normal" text-decoration="none" x="861" y="378.5">-door_open: boolean</text></g></g><g transform="translate(-302,-166) scale(1,1)"><g><path fill="none" stroke="none"></path><text fill="#000000" stroke="none" font-family="Arial" font-size="13px" font-style="normal" font-weight="normal" text-decoration="none" x="861" y="401.5">+open_door()</text></g></g><g transform="translate(-302,-166) scale(1,1)"><g><path fill="none" stroke="none"></path><text fill="#000000" stroke="none" font-family="Arial" font-size="13px" font-style="normal" font-weight="normal" text-decoration="none" x="861" y="416.5">+close_door()</text></g></g><g transform="translate(-302,-166) scale(1,1)"><g><path fill="none" stroke="none"></path><text fill="#000000" stroke="none" font-family="Arial" font-size="13px" font-style="normal" font-weight="normal" text-decoration="none" x="861" y="431.5">+is_door_open()</text></g></g><g transform="translate(-302,-166) scale(1,1)"><rect fill="#C0C0C0" stroke="none" x="559" y="343" width="224" height="160" opacity="0.2"></rect></g><g transform="translate(-302,-166) scale(1,1)"><rect fill="#ffffff" stroke="none" x="552" y="336" width="224" height="160"></rect></g><g transform="translate(-302,-166) scale(1,1)"><path fill="none" stroke="#000000" d="M 552 336 L 776 336 L 776 496 L 552 496 L 552 336 Z Z" stroke-miterlimit="10"></path></g><g transform="translate(-302,-166) scale(1,1)"><path fill="none" stroke="#000000" d="M 552 361 L 776 361" stroke-miterlimit="10"></path></g><g transform="translate(-302,-166) scale(1,1)"><path fill="none" stroke="#000000" d="M 552 429 L 776 429" stroke-miterlimit="10"></path></g><g transform="translate(-302,-166) scale(1,1)"><g><path fill="none" stroke="none"></path><text fill="#000000" stroke="none" font-family="Arial" font-size="13px" font-style="normal" font-weight="bold" text-decoration="none" x="613.5" y="355.5">ElevatorController</text></g></g><g transform="translate(-302,-166) scale(1,1)"><g><path fill="none" stroke="none"></path><text fill="#000000" stroke="none" font-family="Arial" font-size="13px" font-style="normal" font-weight="normal" text-decoration="none" x="557" y="378.5">-current_floor: unsigned int</text></g></g><g transform="translate(-302,-166) scale(1,1)"><g><path fill="none" stroke="none"></path><text fill="#000000" stroke="none" font-family="Arial" font-size="13px" font-style="normal" font-weight="normal" text-decoration="none" x="557" y="393.5">-current_state: unsigned int</text></g></g><g transform="translate(-302,-166) scale(1,1)"><g><path fill="none" stroke="none"></path><text fill="#000000" stroke="none" font-family="Arial" font-size="13px" font-style="normal" font-weight="normal" text-decoration="none" x="557" y="408.5">-orders_up</text></g></g><g transform="translate(-302,-166) scale(1,1)"><g><path fill="none" stroke="none"></path><text fill="#000000" stroke="none" font-family="Arial" font-size="13px" font-style="normal" font-weight="normal" text-decoration="none" x="557" y="423.5">-orders_down</text></g></g><g transform="translate(-302,-166) scale(1,1)"><g><path fill="none" stroke="none"></path><text fill="#000000" stroke="none" font-family="Arial" font-size="13px" font-style="normal" font-weight="normal" text-decoration="none" x="557" y="446.5">+add_order_to_queue_up()</text></g></g><g transform="translate(-302,-166) scale(1,1)"><g><path fill="none" stroke="none"></path><text fill="#000000" stroke="none" font-family="Arial" font-size="13px" font-style="normal" font-weight="normal" text-decoration="none" x="557" y="461.5">+add_order_to_queue_down()</text></g></g><g transform="translate(-302,-166) scale(1,1)"><g><path fill="none" stroke="none"></path><text fill="#000000" stroke="none" font-family="Arial" font-size="13px" font-style="normal" font-weight="normal" text-decoration="none" x="557" y="476.5">+empty_queue()</text></g></g><g transform="translate(-302,-166) scale(1,1)"><g><path fill="none" stroke="none"></path><text fill="#000000" stroke="none" font-family="Arial" font-size="13px" font-style="normal" font-weight="normal" text-decoration="none" x="557" y="491.5">+emergency_stop()</text></g></g><g transform="translate(-302,-166) scale(1,1)"><rect fill="#C0C0C0" stroke="none" x="559" y="183" width="223" height="102" opacity="0.2"></rect></g><g transform="translate(-302,-166) scale(1,1)"><rect fill="#ffffff" stroke="none" x="552" y="176" width="223" height="102"></rect></g><g transform="translate(-302,-166) scale(1,1)"><path fill="none" stroke="#000000" d="M 552 176 L 775 176 L 775 278 L 552 278 L 552 176 Z Z" stroke-miterlimit="10"></path></g><g transform="translate(-302,-166) scale(1,1)"><path fill="none" stroke="#000000" d="M 552 201 L 775 201" stroke-miterlimit="10"></path></g><g transform="translate(-302,-166) scale(1,1)"><path fill="none" stroke="#000000" d="M 552 211 L 775 211" stroke-miterlimit="10"></path></g><g transform="translate(-302,-166) scale(1,1)"><g><path fill="none" stroke="none"></path><text fill="#000000" stroke="none" font-family="Arial" font-size="13px" font-style="normal" font-weight="bold" text-decoration="none" x="621.5" y="195.5">FloorController</text></g></g><g transform="translate(-302,-166) scale(1,1)"><g><path fill="none" stroke="none"></path><text fill="#000000" stroke="none" font-family="Arial" font-size="13px" font-style="normal" font-weight="normal" text-decoration="none" x="557" y="228.5">+arrived_at_floor()</text></g></g><g transform="translate(-302,-166) scale(1,1)"><g><path fill="none" stroke="none"></path><text fill="#000000" stroke="none" font-family="Arial" font-size="13px" font-style="normal" font-weight="normal" text-decoration="none" x="557" y="243.5">+get_floor_orders_up(int[], int n)</text></g></g><g transform="translate(-302,-166) scale(1,1)"><g><path fill="none" stroke="none"></path><text fill="#000000" stroke="none" font-family="Arial" font-size="13px" font-style="normal" font-weight="normal" text-decoration="none" x="557" y="258.5">+get_floor_orders_down(int[], int n)</text></g></g><g transform="translate(-302,-166) scale(1,1)"><g><path fill="none" stroke="none"></path><text fill="#000000" stroke="none" font-family="Arial" font-size="13px" font-style="normal" font-weight="normal" text-decoration="none" x="557" y="273.5">+clear_floor_light(int)</text></g></g><g transform="translate(-302,-166) scale(1,1)"><rect fill="#C0C0C0" stroke="none" x="559" y="567" width="222" height="96" opacity="0.2"></rect></g><g transform="translate(-302,-166) scale(1,1)"><rect fill="#ffffff" stroke="none" x="552" y="560" width="222" height="96"></rect></g><g transform="translate(-302,-166) scale(1,1)"><path fill="none" stroke="#000000" d="M 552 560 L 774 560 L 774 656 L 552 656 L 552 560 Z Z" stroke-miterlimit="10"></path></g><g transform="translate(-302,-166) scale(1,1)"><path fill="none" stroke="#000000" d="M 552 585 L 774 585" stroke-miterlimit="10"></path></g><g transform="translate(-302,-166) scale(1,1)"><path fill="none" stroke="#000000" d="M 552 595 L 774 595" stroke-miterlimit="10"></path></g><g transform="translate(-302,-166) scale(1,1)"><g><path fill="none" stroke="none"></path><text fill="#000000" stroke="none" font-family="Arial" font-size="13px" font-style="normal" font-weight="bold" text-decoration="none" x="623.5" y="579.5">ElevatorPanel</text></g></g><g transform="translate(-302,-166) scale(1,1)"><g><path fill="none" stroke="none"></path><text fill="#000000" stroke="none" font-family="Arial" font-size="13px" font-style="normal" font-weight="normal" text-decoration="none" x="557" y="612.5">+is_emergency_button_pressed()</text></g></g><g transform="translate(-302,-166) scale(1,1)"><g><path fill="none" stroke="none"></path><text fill="#000000" stroke="none" font-family="Arial" font-size="13px" font-style="normal" font-weight="normal" text-decoration="none" x="557" y="627.5">+get_new_elevator_orders(int[], int n)</text></g></g><g transform="translate(-302,-166) scale(1,1)"><g><path fill="none" stroke="none"></path><text fill="#000000" stroke="none" font-family="Arial" font-size="13px" font-style="normal" font-weight="normal" text-decoration="none" x="557" y="642.5">+clear_elevator_light(int)</text></g></g><g transform="translate(-302,-166) scale(1,1)"><path fill="none" stroke="#000000" d="M 777 416 L 855 416" stroke-miterlimit="10"></path></g><g transform="translate(-302,-166) scale(1,1)"><path fill="none" stroke="#000000" d="M 844.8373251423759 420.209517756016 L 855 416 L 844.8373251423758 411.790482243984" stroke-miterlimit="10"></path></g><g transform="translate(-302,-166) scale(1,1)"><path fill="none" stroke="#000000" d="M 551 416 L 493 416" stroke-miterlimit="10"></path></g><g transform="translate(-302,-166) scale(1,1)"><path fill="none" stroke="#000000" d="M 503.16267485762415 411.790482243984 L 493 416 L 503.16267485762415 420.209517756016" stroke-miterlimit="10"></path></g><g transform="translate(-302,-166) scale(1,1)"><path fill="none" stroke="#000000" d="M 663 559 L 664 497" stroke-miterlimit="10"></path></g><g transform="translate(-302,-166) scale(1,1)"><path fill="none" stroke="#000000" d="M 664 335 L 663 279" stroke-miterlimit="10"></path></g><g transform="translate(-302,-166) scale(1,1)"><path fill="none" stroke="#000000" d="M 667.3902941654268 289.08589694281176 L 663 279 L 658.9726006531661 289.23621289838786" stroke-miterlimit="10"></path></g><g transform="translate(-302,-166) scale(1,1)"><path fill="none" stroke="#000000" d="M 664 497 L 663 559" stroke-miterlimit="10"></path></g><g transform="translate(-302,-166) scale(1,1)"><path fill="none" stroke="#000000" d="M 658.954922475101 548.7707601544613 L 663 559 L 667.3728631128827 548.9065333905545" stroke-miterlimit="10"></path></g></g></svg>