<svg version="1.1" xmlns="http://www.w3.org/2000/svg" xmlns:xlink="http://www.w3.org/1999/xlink" width="836" height="386"><defs></defs><g><g transform="translate(-230,-134) scale(1,1)"><rect fill="#C0C0C0" stroke="none" x="247" y="327" width="229" height="190" opacity="0.2"></rect></g><g transform="translate(-230,-134) scale(1,1)"><rect fill="#ffffff" stroke="none" x="240" y="320" width="229" height="190"></rect></g><g transform="translate(-230,-134) scale(1,1)"><path fill="none" stroke="#000000" d="M 240 320 L 469 320 L 469 510 L 240 510 L 240 320 Z Z" stroke-miterlimit="10"></path></g><g transform="translate(-230,-134) scale(1,1)"><path fill="none" stroke="#000000" d="M 240 345 L 469 345" stroke-miterlimit="10"></path></g><g transform="translate(-230,-134) scale(1,1)"><path fill="none" stroke="#000000" d="M 240 383 L 469 383" stroke-miterlimit="10"></path></g><g transform="translate(-230,-134) scale(1,1)"><g><path fill="none" stroke="none"></path><text fill="#000000" stroke="none" font-family="Arial" font-size="13px" font-style="normal" font-weight="bold" text-decoration="none" x="315.5" y="339.5">ElevatorDriver</text></g></g><g transform="translate(-230,-134) scale(1,1)"><g><path fill="none" stroke="none"></path><text fill="#000000" stroke="none" font-family="Arial" font-size="13px" font-style="normal" font-weight="normal" text-decoration="none" x="245" y="362.5">-motor_direction_up: int</text></g></g><g transform="translate(-230,-134) scale(1,1)"><g><path fill="none" stroke="none"></path><text fill="#000000" stroke="none" font-family="Arial" font-size="13px" font-style="normal" font-weight="normal" text-decoration="none" x="245" y="377.5">-motor_running: int</text></g></g><g transform="translate(-230,-134) scale(1,1)"><g><path fill="none" stroke="none"></path><text fill="#000000" stroke="none" font-family="Arial" font-size="13px" font-style="normal" font-weight="normal" text-decoration="none" x="245" y="400.5">+start_motor()</text></g></g><g transform="translate(-230,-134) scale(1,1)"><g><path fill="none" stroke="none"></path><text fill="#000000" stroke="none" font-family="Arial" font-size="13px" font-style="normal" font-weight="normal" text-decoration="none" x="245" y="415.5">+stop_motor()</text></g></g><g transform="translate(-230,-134) scale(1,1)"><g><path fill="none" stroke="none"></path><text fill="#000000" stroke="none" font-family="Arial" font-size="13px" font-style="normal" font-weight="normal" text-decoration="none" x="245" y="430.5">+get_motor_direction()</text></g></g><g transform="translate(-230,-134) scale(1,1)"><g><path fill="none" stroke="none"></path><text fill="#000000" stroke="none" font-family="Arial" font-size="13px" font-style="normal" font-weight="normal" text-decoration="none" x="245" y="445.5">+set_motor_direction(int)</text></g></g><g transform="translate(-230,-134) scale(1,1)"><g><path fill="none" stroke="none"></path><text fill="#000000" stroke="none" font-family="Arial" font-size="13px" font-style="normal" font-weight="normal" text-decoration="none" x="245" y="460.5">+is_motor_running()</text></g></g><g transform="translate(-230,-134) scale(1,1)"><g><path fill="none" stroke="none"></path><text fill="#000000" stroke="none" font-family="Arial" font-size="13px" font-style="normal" font-weight="normal" text-decoration="none" x="245" y="475.5">+is_emergency_button_pressed()</text></g></g><g transform="translate(-230,-134) scale(1,1)"><g><path fill="none" stroke="none"></path><text fill="#000000" stroke="none" font-family="Arial" font-size="13px" font-style="normal" font-weight="normal" text-decoration="none" x="245" y="490.5">+get_new_elevator_buttons(int[], int n)</text></g></g><g transform="translate(-230,-134) scale(1,1)"><g><path fill="none" stroke="none"></path><text fill="#000000" stroke="none" font-family="Arial" font-size="13px" font-style="normal" font-weight="normal" text-decoration="none" x="245" y="505.5">+clear_elevator_light(int)</text></g></g><g transform="translate(-230,-134) scale(1,1)"><rect fill="#C0C0C0" stroke="none" x="863" y="343" width="176" height="160" opacity="0.2"></rect></g><g transform="translate(-230,-134) scale(1,1)"><rect fill="#ffffff" stroke="none" x="856" y="336" width="176" height="160"></rect></g><g transform="translate(-230,-134) scale(1,1)"><path fill="none" stroke="#000000" d="M 856 336 L 1032 336 L 1032 496 L 856 496 L 856 336 Z Z" stroke-miterlimit="10"></path></g><g transform="translate(-230,-134) scale(1,1)"><path fill="none" stroke="#000000" d="M 856 361 L 1032 361" stroke-miterlimit="10"></path></g><g transform="translate(-230,-134) scale(1,1)"><path fill="none" stroke="#000000" d="M 856 384 L 1032 384" stroke-miterlimit="10"></path></g><g transform="translate(-230,-134) scale(1,1)"><g><path fill="none" stroke="none"></path><text fill="#000000" stroke="none" font-family="Arial" font-size="13px" font-style="normal" font-weight="bold" text-decoration="none" x="914.5" y="355.5">DoorDriver</text></g></g><g transform="translate(-230,-134) scale(1,1)"><g><path fill="none" stroke="none"></path><text fill="#000000" stroke="none" font-family="Arial" font-size="13px" font-style="normal" font-weight="normal" text-decoration="none" x="861" y="378.5">-door_open: boolean</text></g></g><g transform="translate(-230,-134) scale(1,1)"><g><path fill="none" stroke="none"></path><text fill="#000000" stroke="none" font-family="Arial" font-size="13px" font-style="normal" font-weight="normal" text-decoration="none" x="861" y="401.5">+open_door()</text></g></g><g transform="translate(-230,-134) scale(1,1)"><g><path fill="none" stroke="none"></path><text fill="#000000" stroke="none" font-family="Arial" font-size="13px" font-style="normal" font-weight="normal" text-decoration="none" x="861" y="416.5">+close_door()</text></g></g><g transform="translate(-230,-134) scale(1,1)"><g><path fill="none" stroke="none"></path><text fill="#000000" stroke="none" font-family="Arial" font-size="13px" font-style="normal" font-weight="normal" text-decoration="none" x="861" y="431.5">+is_door_open()</text></g></g><g transform="translate(-230,-134) scale(1,1)"><rect fill="#C0C0C0" stroke="none" x="559" y="343" width="224" height="160" opacity="0.2"></rect></g><g transform="translate(-230,-134) scale(1,1)"><rect fill="#ffffff" stroke="none" x="552" y="336" width="224" height="160"></rect></g><g transform="translate(-230,-134) scale(1,1)"><path fill="none" stroke="#000000" d="M 552 336 L 776 336 L 776 496 L 552 496 L 552 336 Z Z" stroke-miterlimit="10"></path></g><g transform="translate(-230,-134) scale(1,1)"><path fill="none" stroke="#000000" d="M 552 361 L 776 361" stroke-miterlimit="10"></path></g><g transform="translate(-230,-134) scale(1,1)"><path fill="none" stroke="#000000" d="M 552 399 L 776 399" stroke-miterlimit="10"></path></g><g transform="translate(-230,-134) scale(1,1)"><g><path fill="none" stroke="none"></path><text fill="#000000" stroke="none" font-family="Arial" font-size="13px" font-style="normal" font-weight="bold" text-decoration="none" x="613.5" y="355.5">ElevatorController</text></g></g><g transform="translate(-230,-134) scale(1,1)"><g><path fill="none" stroke="none"></path><text fill="#000000" stroke="none" font-family="Arial" font-size="13px" font-style="normal" font-weight="normal" text-decoration="none" x="557" y="378.5">-current_floor: unsigned int</text></g></g><g transform="translate(-230,-134) scale(1,1)"><g><path fill="none" stroke="none"></path><text fill="#000000" stroke="none" font-family="Arial" font-size="13px" font-style="normal" font-weight="normal" text-decoration="none" x="557" y="393.5">-current_state: unsigned int</text></g></g><g transform="translate(-230,-134) scale(1,1)"><g><path fill="none" stroke="none"></path><text fill="#000000" stroke="none" font-family="Arial" font-size="13px" font-style="normal" font-weight="normal" text-decoration="none" x="557" y="416.5">+emergency_stop()</text></g></g><g transform="translate(-230,-134) scale(1,1)"><g><path fill="none" stroke="none"></path><text fill="#000000" stroke="none" font-family="Arial" font-size="13px" font-style="normal" font-weight="normal" text-decoration="none" x="557" y="431.5">+loop_once()</text></g></g><g transform="translate(-230,-134) scale(1,1)"><rect fill="#C0C0C0" stroke="none" x="559" y="183" width="223" height="102" opacity="0.2"></rect></g><g transform="translate(-230,-134) scale(1,1)"><rect fill="#ffffff" stroke="none" x="552" y="176" width="223" height="102"></rect></g><g transform="translate(-230,-134) scale(1,1)"><path fill="none" stroke="#000000" d="M 552 176 L 775 176 L 775 278 L 552 278 L 552 176 Z Z" stroke-miterlimit="10"></path></g><g transform="translate(-230,-134) scale(1,1)"><path fill="none" stroke="#000000" d="M 552 201 L 775 201" stroke-miterlimit="10"></path></g><g transform="translate(-230,-134) scale(1,1)"><path fill="none" stroke="#000000" d="M 552 211 L 775 211" stroke-miterlimit="10"></path></g><g transform="translate(-230,-134) scale(1,1)"><g><path fill="none" stroke="none"></path><text fill="#000000" stroke="none" font-family="Arial" font-size="13px" font-style="normal" font-weight="bold" text-decoration="none" x="633" y="195.5">FloorDriver</text></g></g><g transform="translate(-230,-134) scale(1,1)"><g><path fill="none" stroke="none"></path><text fill="#000000" stroke="none" font-family="Arial" font-size="13px" font-style="normal" font-weight="normal" text-decoration="none" x="557" y="228.5">+arrived_at_floor()</text></g></g><g transform="translate(-230,-134) scale(1,1)"><g><path fill="none" stroke="none"></path><text fill="#000000" stroke="none" font-family="Arial" font-size="13px" font-style="normal" font-weight="normal" text-decoration="none" x="557" y="243.5">+get_floor_orders_up(int[], int n)</text></g></g><g transform="translate(-230,-134) scale(1,1)"><g><path fill="none" stroke="none"></path><text fill="#000000" stroke="none" font-family="Arial" font-size="13px" font-style="normal" font-weight="normal" text-decoration="none" x="557" y="258.5">+get_floor_orders_down(int[], int n)</text></g></g><g transform="translate(-230,-134) scale(1,1)"><g><path fill="none" stroke="none"></path><text fill="#000000" stroke="none" font-family="Arial" font-size="13px" font-style="normal" font-weight="normal" text-decoration="none" x="557" y="273.5">+clear_floor_light(int)</text></g></g><g transform="translate(-230,-134) scale(1,1)"><path fill="none" stroke="#000000" d="M 470 415 L 551 416" stroke-miterlimit="10"></path></g><g transform="translate(-230,-134) scale(1,1)"><g><path fill="none" stroke="none"></path><text fill="#000000" stroke="none" font-family="Arial" font-size="13px" font-style="normal" font-weight="normal" text-decoration="none" x="503.5" y="406.5">+*</text></g></g><g transform="translate(-230,-134) scale(1,1)"><path fill="none" stroke="#000000" d="M 777 416 L 855 416" stroke-miterlimit="10"></path></g><g transform="translate(-230,-134) scale(1,1)"><path fill="none" stroke="#000000" d="M 844.8373251423759 420.209517756016 L 855 416 L 844.8373251423758 411.790482243984" stroke-miterlimit="10"></path></g><g transform="translate(-230,-134) scale(1,1)"><path fill="none" stroke="#000000" d="M 551 416 L 470 415" stroke-miterlimit="10"></path></g><g transform="translate(-230,-134) scale(1,1)"><path fill="none" stroke="#000000" d="M 480.21386586507487 410.9162585671644 L 470 415 L 480.10993507509477 419.33465255555376" stroke-miterlimit="10"></path></g><g transform="translate(-230,-134) scale(1,1)"><path fill="none" stroke="#000000" d="M 664 335 L 663 279" stroke-miterlimit="10"></path></g><g transform="translate(-230,-134) scale(1,1)"><path fill="none" stroke="#000000" d="M 667.3902941654268 289.08589694281176 L 663 279 L 658.9726006531661 289.23621289838786" stroke-miterlimit="10"></path></g><g transform="translate(-230,-134) scale(1,1)"><rect fill="#C0C0C0" stroke="none" x="855" y="151" width="208" height="145" opacity="0.2"></rect></g><g transform="translate(-230,-134) scale(1,1)"><rect fill="#ffffff" stroke="none" x="848" y="144" width="208" height="145"></rect></g><g transform="translate(-230,-134) scale(1,1)"><path fill="none" stroke="#000000" d="M 848 144 L 1056 144 L 1056 289 L 848 289 L 848 144 Z Z" stroke-miterlimit="10"></path></g><g transform="translate(-230,-134) scale(1,1)"><path fill="none" stroke="#000000" d="M 848 169 L 1056 169" stroke-miterlimit="10"></path></g><g transform="translate(-230,-134) scale(1,1)"><path fill="none" stroke="#000000" d="M 848 207 L 1056 207" stroke-miterlimit="10"></path></g><g transform="translate(-230,-134) scale(1,1)"><g><path fill="none" stroke="none"></path><text fill="#000000" stroke="none" font-family="Arial" font-size="13px" font-style="normal" font-weight="bold" text-decoration="none" x="917" y="163.5">OrderQueue</text></g></g><g transform="translate(-230,-134) scale(1,1)"><g><path fill="none" stroke="none"></path><text fill="#000000" stroke="none" font-family="Arial" font-size="13px" font-style="normal" font-weight="normal" text-decoration="none" x="853" y="186.5">-orders_up: int</text></g></g><g transform="translate(-230,-134) scale(1,1)"><g><path fill="none" stroke="none"></path><text fill="#000000" stroke="none" font-family="Arial" font-size="13px" font-style="normal" font-weight="normal" text-decoration="none" x="853" y="201.5">-orders_down: int</text></g></g><g transform="translate(-230,-134) scale(1,1)"><g><path fill="none" stroke="none"></path><text fill="#000000" stroke="none" font-family="Arial" font-size="13px" font-style="normal" font-weight="normal" text-decoration="none" x="853" y="224.5">+add_to_order_queue_up(int)</text></g></g><g transform="translate(-230,-134) scale(1,1)"><g><path fill="none" stroke="none"></path><text fill="#000000" stroke="none" font-family="Arial" font-size="13px" font-style="normal" font-weight="normal" text-decoration="none" x="853" y="239.5">+add_to_order_queue_down(int)</text></g></g><g transform="translate(-230,-134) scale(1,1)"><g><path fill="none" stroke="none"></path><text fill="#000000" stroke="none" font-family="Arial" font-size="13px" font-style="normal" font-weight="normal" text-decoration="none" x="853" y="254.5">+empty_queue()</text></g></g><g transform="translate(-230,-134) scale(1,1)"><g><path fill="none" stroke="none"></path><text fill="#000000" stroke="none" font-family="Arial" font-size="13px" font-style="normal" font-weight="normal" text-decoration="none" x="853" y="269.5">+get_queue_down()</text></g></g><g transform="translate(-230,-134) scale(1,1)"><g><path fill="none" stroke="none"></path><text fill="#000000" stroke="none" font-family="Arial" font-size="13px" font-style="normal" font-weight="normal" text-decoration="none" x="853" y="284.5">+get_queue_up()</text></g></g><g transform="translate(-230,-134) scale(1,1)"><path fill="none" stroke="#000000" d="M 777 338 L 847 289" stroke-miterlimit="10"></path></g><g transform="translate(-230,-134) scale(1,1)"><path fill="none" stroke="#000000" d="M 841.088412279782 298.2764826645754 L 847 289 L 836.260412437774 291.3793400331354" stroke-miterlimit="10"></path></g></g></svg>