<svg version="1.1" xmlns="http://www.w3.org/2000/svg" xmlns:xlink="http://www.w3.org/1999/xlink" width="1103" height="924"><defs></defs><g><g transform="translate(-118,-30) scale(1,1)"><rect fill="#C0C0C0" stroke="none" x="135" y="47" width="159" height="39" opacity="0.2"></rect></g><g transform="translate(-118,-30) scale(1,1)"><rect fill="#ffffff" stroke="none" x="128" y="40" width="159" height="39"></rect></g><g transform="translate(-118,-30) scale(1,1)"><path fill="none" stroke="#000000" d="M 128 40 L 287 40 L 287 79 L 128 79 L 128 40 Z Z" stroke-miterlimit="10"></path></g><g transform="translate(-118,-30) scale(1,1)"><g><path fill="none" stroke="none"></path><text fill="#000000" stroke="none" font-family="Arial" font-size="13px" font-style="normal" font-weight="bold" text-decoration="none" x="194" y="59.5">User</text></g></g><g transform="translate(-118,-30) scale(1,1)"><path fill="none" stroke="#000000" d="M 208.5 80 L 208.5 936" stroke-miterlimit="10" stroke-dasharray="3"></path></g><g transform="translate(-118,-30) scale(1,1)"><rect fill="#C0C0C0" stroke="none" x="303" y="47" width="176" height="39" opacity="0.2"></rect></g><g transform="translate(-118,-30) scale(1,1)"><rect fill="#ffffff" stroke="none" x="296" y="40" width="176" height="39"></rect></g><g transform="translate(-118,-30) scale(1,1)"><path fill="none" stroke="#000000" d="M 296 40 L 472 40 L 472 79 L 296 79 L 296 40 Z Z" stroke-miterlimit="10"></path></g><g transform="translate(-118,-30) scale(1,1)"><g><path fill="none" stroke="none"></path><text fill="#000000" stroke="none" font-family="Arial" font-size="13px" font-style="normal" font-weight="bold" text-decoration="none" x="315.5" y="59.5">FSM: ElevatorController</text></g></g><g transform="translate(-118,-30) scale(1,1)"><path fill="none" stroke="#000000" d="M 385.5 80 L 385.5 938" stroke-miterlimit="10" stroke-dasharray="3"></path></g><g transform="translate(-118,-30) scale(1,1)"><rect fill="#C0C0C0" stroke="none" x="487" y="47" width="184" height="39" opacity="0.2"></rect></g><g transform="translate(-118,-30) scale(1,1)"><rect fill="#ffffff" stroke="none" x="480" y="40" width="184" height="39"></rect></g><g transform="translate(-118,-30) scale(1,1)"><path fill="none" stroke="#000000" d="M 480 40 L 664 40 L 664 79 L 480 79 L 480 40 Z Z" stroke-miterlimit="10"></path></g><g transform="translate(-118,-30) scale(1,1)"><g><path fill="none" stroke="none"></path><text fill="#000000" stroke="none" font-family="Arial" font-size="13px" font-style="normal" font-weight="bold" text-decoration="none" x="513.5" y="59.5">Orders: OrderQueue</text></g></g><g transform="translate(-118,-30) scale(1,1)"><path fill="none" stroke="#000000" d="M 573.5 80 L 573.5 944" stroke-miterlimit="10" stroke-dasharray="3"></path></g><g transform="translate(-118,-30) scale(1,1)"><rect fill="#C0C0C0" stroke="none" x="679" y="47" width="168" height="39" opacity="0.2"></rect></g><g transform="translate(-118,-30) scale(1,1)"><rect fill="#ffffff" stroke="none" x="672" y="40" width="168" height="39"></rect></g><g transform="translate(-118,-30) scale(1,1)"><path fill="none" stroke="#000000" d="M 672 40 L 840 40 L 840 79 L 672 79 L 672 40 Z Z" stroke-miterlimit="10"></path></g><g transform="translate(-118,-30) scale(1,1)"><g><path fill="none" stroke="none"></path><text fill="#000000" stroke="none" font-family="Arial" font-size="13px" font-style="normal" font-weight="bold" text-decoration="none" x="707" y="59.5">Floor: FloorDriver</text></g></g><g transform="translate(-118,-30) scale(1,1)"><path fill="none" stroke="#000000" d="M 757.5 80 L 757.5 944" stroke-miterlimit="10" stroke-dasharray="3"></path></g><g transform="translate(-118,-30) scale(1,1)"><rect fill="#C0C0C0" stroke="none" x="855" y="47" width="167" height="39" opacity="0.2"></rect></g><g transform="translate(-118,-30) scale(1,1)"><rect fill="#ffffff" stroke="none" x="848" y="40" width="167" height="39"></rect></g><g transform="translate(-118,-30) scale(1,1)"><path fill="none" stroke="#000000" d="M 848 40 L 1015 40 L 1015 79 L 848 79 L 848 40 Z Z" stroke-miterlimit="10"></path></g><g transform="translate(-118,-30) scale(1,1)"><g><path fill="none" stroke="none"></path><text fill="#000000" stroke="none" font-family="Arial" font-size="13px" font-style="normal" font-weight="bold" text-decoration="none" x="884.5" y="59.5">Door: DoorDriver</text></g></g><g transform="translate(-118,-30) scale(1,1)"><path fill="none" stroke="#000000" d="M 932.5 80 L 932.5 944" stroke-miterlimit="10" stroke-dasharray="3"></path></g><g transform="translate(-118,-30) scale(1,1)"><rect fill="#C0C0C0" stroke="none" x="1031" y="47" width="187" height="39" opacity="0.2"></rect></g><g transform="translate(-118,-30) scale(1,1)"><rect fill="#ffffff" stroke="none" x="1024" y="40" width="187" height="39"></rect></g><g transform="translate(-118,-30) scale(1,1)"><path fill="none" stroke="#000000" d="M 1024 40 L 1211 40 L 1211 79 L 1024 79 L 1024 40 Z Z" stroke-miterlimit="10"></path></g><g transform="translate(-118,-30) scale(1,1)"><g><path fill="none" stroke="none"></path><text fill="#000000" stroke="none" font-family="Arial" font-size="13px" font-style="normal" font-weight="bold" text-decoration="none" x="1051.5" y="59.5">Elevator: ElevatorDriver</text></g></g><g transform="translate(-118,-30) scale(1,1)"><path fill="none" stroke="#000000" d="M 1118.5 80 L 1118.5 938" stroke-miterlimit="10" stroke-dasharray="3"></path></g><g transform="translate(-118,-30) scale(1,1)"><path fill="none" stroke="#000000" d="M 208 104 L 378 104" stroke-miterlimit="10"></path></g><g transform="translate(-118,-30) scale(1,1)"><path fill="#000000" stroke="none" d="M 367.83732514237585 108.20951775601598 L 378 104 L 367.83732514237585 99.79048224398402"></path></g><g transform="translate(-118,-30) scale(1,1)"><path fill="none" stroke="#000000" d="M 367.83732514237585 108.20951775601598 L 378 104 L 367.83732514237585 99.79048224398402 L 367.83732514237585 108.20951775601598" stroke-miterlimit="10"></path></g><g transform="translate(-118,-30) scale(1,1)"><g><path fill="none" stroke="none"></path><text fill="#000000" stroke="none" font-family="Arial" font-size="13px" font-style="normal" font-weight="normal" text-decoration="none" x="225.5" y="100.5">1 : New order to 1. floor</text></g></g><g transform="translate(-118,-30) scale(1,1)"><rect fill="#ffffff" stroke="none" x="378" y="104" width="13" height="48"></rect></g><g transform="translate(-118,-30) scale(1,1)"><path fill="none" stroke="#000000" d="M 378 104 L 391 104 L 391 152 L 378 152 L 378 104 Z Z" stroke-miterlimit="10"></path></g><g transform="translate(-118,-30) scale(1,1)"><path fill="none" stroke="#000000" d="M 391 112 L 750 112" stroke-miterlimit="10"></path></g><g transform="translate(-118,-30) scale(1,1)"><path fill="#000000" stroke="none" d="M 739.8373251423759 116.20951775601598 L 750 112 L 739.8373251423758 107.79048224398402"></path></g><g transform="translate(-118,-30) scale(1,1)"><path fill="none" stroke="#000000" d="M 739.8373251423759 116.20951775601598 L 750 112 L 739.8373251423758 107.79048224398402 L 739.8373251423759 116.20951775601598" stroke-miterlimit="10"></path></g><g transform="translate(-118,-30) scale(1,1)"><g><path fill="none" stroke="none"></path><text fill="#000000" stroke="none" font-family="Arial" font-size="13px" font-style="normal" font-weight="normal" text-decoration="none" x="505.5" y="108.5">2 : Set floor order light</text></g></g><g transform="translate(-118,-30) scale(1,1)"><rect fill="#ffffff" stroke="none" x="750" y="112" width="13" height="28"></rect></g><g transform="translate(-118,-30) scale(1,1)"><path fill="none" stroke="#000000" d="M 750 112 L 763 112 L 763 140 L 750 140 L 750 112 Z Z" stroke-miterlimit="10"></path></g><g transform="translate(-118,-30) scale(1,1)"><path fill="none" stroke="#000000" d="M 391 136 L 566 136" stroke-miterlimit="10"></path></g><g transform="translate(-118,-30) scale(1,1)"><path fill="#000000" stroke="none" d="M 555.8373251423759 140.209517756016 L 566 136 L 555.8373251423758 131.790482243984"></path></g><g transform="translate(-118,-30) scale(1,1)"><path fill="none" stroke="#000000" d="M 555.8373251423759 140.209517756016 L 566 136 L 555.8373251423758 131.790482243984 L 555.8373251423759 140.209517756016" stroke-miterlimit="10"></path></g><g transform="translate(-118,-30) scale(1,1)"><g><path fill="none" stroke="none"></path><text fill="#000000" stroke="none" font-family="Arial" font-size="13px" font-style="normal" font-weight="normal" text-decoration="none" x="413.5" y="132.5">3 : Add order to queue</text></g></g><g transform="translate(-118,-30) scale(1,1)"><rect fill="#ffffff" stroke="none" x="566" y="136" width="13" height="28"></rect></g><g transform="translate(-118,-30) scale(1,1)"><path fill="none" stroke="#000000" d="M 566 136 L 579 136 L 579 164 L 566 164 L 566 136 Z Z" stroke-miterlimit="10"></path></g><g transform="translate(-118,-30) scale(1,1)"><path fill="none" stroke="#000000" d="M 385 224 L 566 224" stroke-miterlimit="10"></path></g><g transform="translate(-118,-30) scale(1,1)"><path fill="#000000" stroke="none" d="M 555.8373251423759 228.209517756016 L 566 224 L 555.8373251423758 219.790482243984"></path></g><g transform="translate(-118,-30) scale(1,1)"><path fill="none" stroke="#000000" d="M 555.8373251423759 228.209517756016 L 566 224 L 555.8373251423758 219.790482243984 L 555.8373251423759 228.209517756016" stroke-miterlimit="10"></path></g><g transform="translate(-118,-30) scale(1,1)"><g><path fill="none" stroke="none"></path><text fill="#000000" stroke="none" font-family="Arial" font-size="13px" font-style="normal" font-weight="normal" text-decoration="none" x="397.5" y="220.5">4 : Get next order in queue</text></g></g><g transform="translate(-118,-30) scale(1,1)"><rect fill="#ffffff" stroke="none" x="566" y="224" width="13" height="28"></rect></g><g transform="translate(-118,-30) scale(1,1)"><path fill="none" stroke="#000000" d="M 566 224 L 579 224 L 579 252 L 566 252 L 566 224 Z Z" stroke-miterlimit="10"></path></g><g transform="translate(-118,-30) scale(1,1)"><path fill="none" stroke="#000000" d="M 566 248 L 385 248" stroke-miterlimit="10" stroke-dasharray="3"></path></g><g transform="translate(-118,-30) scale(1,1)"><path fill="none" stroke="#000000" d="M 395.16267485762415 243.790482243984 L 385 248 L 395.16267485762415 252.209517756016" stroke-miterlimit="10"></path></g><g transform="translate(-118,-30) scale(1,1)"><g><path fill="none" stroke="none"></path><text fill="#000000" stroke="none" font-family="Arial" font-size="13px" font-style="normal" font-weight="normal" text-decoration="none" x="421" y="243.5">5 : NextOrder = 1</text></g></g><g transform="translate(-118,-30) scale(1,1)"><path fill="none" stroke="#000000" d="M 385 272 L 925 272" stroke-miterlimit="10"></path></g><g transform="translate(-118,-30) scale(1,1)"><path fill="#000000" stroke="none" d="M 914.8373251423759 276.209517756016 L 925 272 L 914.8373251423758 267.790482243984"></path></g><g transform="translate(-118,-30) scale(1,1)"><path fill="none" stroke="#000000" d="M 914.8373251423759 276.209517756016 L 925 272 L 914.8373251423758 267.790482243984 L 914.8373251423759 276.209517756016" stroke-miterlimit="10"></path></g><g transform="translate(-118,-30) scale(1,1)"><g><path fill="none" stroke="none"></path><text fill="#000000" stroke="none" font-family="Arial" font-size="13px" font-style="normal" font-weight="normal" text-decoration="none" x="817.5" y="268.5">6 : Close door</text></g></g><g transform="translate(-118,-30) scale(1,1)"><rect fill="#ffffff" stroke="none" x="925" y="272" width="13" height="28"></rect></g><g transform="translate(-118,-30) scale(1,1)"><path fill="none" stroke="#000000" d="M 925 272 L 938 272 L 938 300 L 925 300 L 925 272 Z Z" stroke-miterlimit="10"></path></g><g transform="translate(-118,-30) scale(1,1)"><path fill="none" stroke="#000000" d="M 385 312 L 1111 312" stroke-miterlimit="10"></path></g><g transform="translate(-118,-30) scale(1,1)"><path fill="#000000" stroke="none" d="M 1100.837325142376 316.209517756016 L 1111 312 L 1100.837325142376 307.790482243984"></path></g><g transform="translate(-118,-30) scale(1,1)"><path fill="none" stroke="#000000" d="M 1100.837325142376 316.209517756016 L 1111 312 L 1100.837325142376 307.790482243984 L 1100.837325142376 316.209517756016" stroke-miterlimit="10"></path></g><g transform="translate(-118,-30) scale(1,1)"><g><path fill="none" stroke="none"></path><text fill="#000000" stroke="none" font-family="Arial" font-size="13px" font-style="normal" font-weight="normal" text-decoration="none" x="845.5" y="331.5">7 : Set motor direction down and start</text></g></g><g transform="translate(-118,-30) scale(1,1)"><rect fill="#ffffff" stroke="none" x="1111" y="312" width="13" height="41"></rect></g><g transform="translate(-118,-30) scale(1,1)"><path fill="none" stroke="#000000" d="M 1111 312 L 1124 312 L 1124 353 L 1111 353 L 1111 312 Z Z" stroke-miterlimit="10"></path></g><g transform="translate(-118,-30) scale(1,1)"><path fill="none" stroke="#000000" d="M 385 352 L 750 352" stroke-miterlimit="10"></path></g><g transform="translate(-118,-30) scale(1,1)"><path fill="#000000" stroke="none" d="M 739.8373251423759 356.209517756016 L 750 352 L 739.8373251423758 347.790482243984"></path></g><g transform="translate(-118,-30) scale(1,1)"><path fill="none" stroke="#000000" d="M 739.8373251423759 356.209517756016 L 750 352 L 739.8373251423758 347.790482243984 L 739.8373251423759 356.209517756016" stroke-miterlimit="10"></path></g><g transform="translate(-118,-30) scale(1,1)"><g><path fill="none" stroke="none"></path><text fill="#000000" stroke="none" font-family="Arial" font-size="13px" font-style="normal" font-weight="normal" text-decoration="none" x="579.5" y="348.5">8 : Check if floor arrived</text></g></g><g transform="translate(-118,-30) scale(1,1)"><rect fill="#ffffff" stroke="none" x="750" y="352" width="13" height="28"></rect></g><g transform="translate(-118,-30) scale(1,1)"><path fill="none" stroke="#000000" d="M 750 352 L 763 352 L 763 380 L 750 380 L 750 352 Z Z" stroke-miterlimit="10"></path></g><g transform="translate(-118,-30) scale(1,1)"><path fill="none" stroke="#000000" d="M 750 376 L 385 376" stroke-miterlimit="10" stroke-dasharray="3"></path></g><g transform="translate(-118,-30) scale(1,1)"><path fill="none" stroke="#000000" d="M 395.16267485762415 371.790482243984 L 385 376 L 395.16267485762415 380.209517756016" stroke-miterlimit="10"></path></g><g transform="translate(-118,-30) scale(1,1)"><g><path fill="none" stroke="none"></path><text fill="#000000" stroke="none" font-family="Arial" font-size="13px" font-style="normal" font-weight="normal" text-decoration="none" x="412" y="370.5">9 : ArrivalStatus</text></g></g><g transform="translate(-118,-30) scale(1,1)"><path fill="none" stroke="#000000" d="M 385 416 L 1111 416" stroke-miterlimit="10"></path></g><g transform="translate(-118,-30) scale(1,1)"><path fill="#000000" stroke="none" d="M 1100.837325142376 420.209517756016 L 1111 416 L 1100.837325142376 411.790482243984"></path></g><g transform="translate(-118,-30) scale(1,1)"><path fill="none" stroke="#000000" d="M 1100.837325142376 420.209517756016 L 1111 416 L 1100.837325142376 411.790482243984 L 1100.837325142376 420.209517756016" stroke-miterlimit="10"></path></g><g transform="translate(-118,-30) scale(1,1)"><g><path fill="none" stroke="none"></path><text fill="#000000" stroke="none" font-family="Arial" font-size="13px" font-style="normal" font-weight="normal" text-decoration="none" x="970.5" y="412.5">10 : Stop motor</text></g></g><g transform="translate(-118,-30) scale(1,1)"><rect fill="#ffffff" stroke="none" x="1111" y="416" width="13" height="28"></rect></g><g transform="translate(-118,-30) scale(1,1)"><path fill="none" stroke="#000000" d="M 1111 416 L 1124 416 L 1124 444 L 1111 444 L 1111 416 Z Z" stroke-miterlimit="10"></path></g><g transform="translate(-118,-30) scale(1,1)"><path fill="none" stroke="#000000" d="M 385 456 L 925 456" stroke-miterlimit="10"></path></g><g transform="translate(-118,-30) scale(1,1)"><path fill="#000000" stroke="none" d="M 914.8373251423759 460.209517756016 L 925 456 L 914.8373251423758 451.790482243984"></path></g><g transform="translate(-118,-30) scale(1,1)"><path fill="none" stroke="#000000" d="M 914.8373251423759 460.209517756016 L 925 456 L 914.8373251423758 451.790482243984 L 914.8373251423759 460.209517756016" stroke-miterlimit="10"></path></g><g transform="translate(-118,-30) scale(1,1)"><g><path fill="none" stroke="none"></path><text fill="#000000" stroke="none" font-family="Arial" font-size="13px" font-style="normal" font-weight="normal" text-decoration="none" x="813.5" y="452.5">11 : Open door</text></g></g><g transform="translate(-118,-30) scale(1,1)"><rect fill="#ffffff" stroke="none" x="925" y="456" width="13" height="28"></rect></g><g transform="translate(-118,-30) scale(1,1)"><path fill="none" stroke="#000000" d="M 925 456 L 938 456 L 938 484 L 925 484 L 925 456 Z Z" stroke-miterlimit="10"></path></g><g transform="translate(-118,-30) scale(1,1)"><path fill="none" stroke="#000000" d="M 385 496 L 750 496" stroke-miterlimit="10"></path></g><g transform="translate(-118,-30) scale(1,1)"><path fill="#000000" stroke="none" d="M 739.8373251423759 500.209517756016 L 750 496 L 739.8373251423758 491.790482243984"></path></g><g transform="translate(-118,-30) scale(1,1)"><path fill="none" stroke="#000000" d="M 739.8373251423759 500.209517756016 L 750 496 L 739.8373251423758 491.790482243984 L 739.8373251423759 500.209517756016" stroke-miterlimit="10"></path></g><g transform="translate(-118,-30) scale(1,1)"><g><path fill="none" stroke="none"></path><text fill="#000000" stroke="none" font-family="Arial" font-size="13px" font-style="normal" font-weight="normal" text-decoration="none" x="579.5" y="492.5">12 : Clear floor order light</text></g></g><g transform="translate(-118,-30) scale(1,1)"><rect fill="#ffffff" stroke="none" x="750" y="496" width="13" height="28"></rect></g><g transform="translate(-118,-30) scale(1,1)"><path fill="none" stroke="#000000" d="M 750 496 L 763 496 L 763 524 L 750 524 L 750 496 Z Z" stroke-miterlimit="10"></path></g><g transform="translate(-118,-30) scale(1,1)"><path fill="none" stroke="#000000" d="M 208 528 L 378 528" stroke-miterlimit="10"></path></g><g transform="translate(-118,-30) scale(1,1)"><path fill="#000000" stroke="none" d="M 367.83732514237585 532.209517756016 L 378 528 L 367.83732514237585 523.790482243984"></path></g><g transform="translate(-118,-30) scale(1,1)"><path fill="none" stroke="#000000" d="M 367.83732514237585 532.209517756016 L 378 528 L 367.83732514237585 523.790482243984 L 367.83732514237585 532.209517756016" stroke-miterlimit="10"></path></g><g transform="translate(-118,-30) scale(1,1)"><g><path fill="none" stroke="none"></path><text fill="#000000" stroke="none" font-family="Arial" font-size="13px" font-style="normal" font-weight="normal" text-decoration="none" x="220.5" y="506.5">13 : New order to 3. floor</text></g></g><g transform="translate(-118,-30) scale(1,1)"><rect fill="#ffffff" stroke="none" x="378" y="528" width="13" height="120"></rect></g><g transform="translate(-118,-30) scale(1,1)"><path fill="none" stroke="#000000" d="M 378 528 L 391 528 L 391 648 L 378 648 L 378 528 Z Z" stroke-miterlimit="10"></path></g><g transform="translate(-118,-30) scale(1,1)"><path fill="none" stroke="#000000" d="M 391 536 L 1111 536" stroke-miterlimit="10"></path></g><g transform="translate(-118,-30) scale(1,1)"><path fill="#000000" stroke="none" d="M 1100.837325142376 540.209517756016 L 1111 536 L 1100.837325142376 531.790482243984"></path></g><g transform="translate(-118,-30) scale(1,1)"><path fill="none" stroke="#000000" d="M 1100.837325142376 540.209517756016 L 1111 536 L 1100.837325142376 531.790482243984 L 1100.837325142376 540.209517756016" stroke-miterlimit="10"></path></g><g transform="translate(-118,-30) scale(1,1)"><g><path fill="none" stroke="none"></path><text fill="#000000" stroke="none" font-family="Arial" font-size="13px" font-style="normal" font-weight="normal" text-decoration="none" x="842.5" y="532.5">14 : Set elevator order light</text></g></g><g transform="translate(-118,-30) scale(1,1)"><rect fill="#ffffff" stroke="none" x="1111" y="536" width="13" height="28"></rect></g><g transform="translate(-118,-30) scale(1,1)"><path fill="none" stroke="#000000" d="M 1111 536 L 1124 536 L 1124 564 L 1111 564 L 1111 536 Z Z" stroke-miterlimit="10"></path></g><g transform="translate(-118,-30) scale(1,1)"><path fill="none" stroke="#000000" d="M 391 576 L 566 576" stroke-miterlimit="10"></path></g><g transform="translate(-118,-30) scale(1,1)"><path fill="#000000" stroke="none" d="M 555.8373251423759 580.209517756016 L 566 576 L 555.8373251423758 571.790482243984"></path></g><g transform="translate(-118,-30) scale(1,1)"><path fill="none" stroke="#000000" d="M 555.8373251423759 580.209517756016 L 566 576 L 555.8373251423758 571.790482243984 L 555.8373251423759 580.209517756016" stroke-miterlimit="10"></path></g><g transform="translate(-118,-30) scale(1,1)"><g><path fill="none" stroke="none"></path><text fill="#000000" stroke="none" font-family="Arial" font-size="13px" font-style="normal" font-weight="normal" text-decoration="none" x="409.5" y="572.5">15 : Add order to queue</text></g></g><g transform="translate(-118,-30) scale(1,1)"><rect fill="#ffffff" stroke="none" x="566" y="576" width="13" height="28"></rect></g><g transform="translate(-118,-30) scale(1,1)"><path fill="none" stroke="#000000" d="M 566 576 L 579 576 L 579 604 L 566 604 L 566 576 Z Z" stroke-miterlimit="10"></path></g><g transform="translate(-118,-30) scale(1,1)"><path fill="none" stroke="#000000" d="M 391 616 L 566 616" stroke-miterlimit="10"></path></g><g transform="translate(-118,-30) scale(1,1)"><path fill="#000000" stroke="none" d="M 555.8373251423759 620.209517756016 L 566 616 L 555.8373251423758 611.790482243984"></path></g><g transform="translate(-118,-30) scale(1,1)"><path fill="none" stroke="#000000" d="M 555.8373251423759 620.209517756016 L 566 616 L 555.8373251423758 611.790482243984 L 555.8373251423759 620.209517756016" stroke-miterlimit="10"></path></g><g transform="translate(-118,-30) scale(1,1)"><g><path fill="none" stroke="none"></path><text fill="#000000" stroke="none" font-family="Arial" font-size="13px" font-style="normal" font-weight="normal" text-decoration="none" x="393.5" y="611.5">16 : Get next order in queue</text></g></g><g transform="translate(-118,-30) scale(1,1)"><rect fill="#ffffff" stroke="none" x="566" y="616" width="13" height="28"></rect></g><g transform="translate(-118,-30) scale(1,1)"><path fill="none" stroke="#000000" d="M 566 616 L 579 616 L 579 644 L 566 644 L 566 616 Z Z" stroke-miterlimit="10"></path></g><g transform="translate(-118,-30) scale(1,1)"><path fill="none" stroke="#000000" d="M 566 640 L 391 640" stroke-miterlimit="10" stroke-dasharray="3"></path></g><g transform="translate(-118,-30) scale(1,1)"><path fill="none" stroke="#000000" d="M 401.16267485762415 635.790482243984 L 391 640 L 401.16267485762415 644.209517756016" stroke-miterlimit="10"></path></g><g transform="translate(-118,-30) scale(1,1)"><g><path fill="none" stroke="none"></path><text fill="#000000" stroke="none" font-family="Arial" font-size="13px" font-style="normal" font-weight="normal" text-decoration="none" x="423" y="635.5">17 : NextOrder = 3</text></g></g><g transform="translate(-118,-30) scale(1,1)"><path fill="none" stroke="#000000" d="M 385 672 L 925 672" stroke-miterlimit="10"></path></g><g transform="translate(-118,-30) scale(1,1)"><path fill="#000000" stroke="none" d="M 914.8373251423759 676.209517756016 L 925 672 L 914.8373251423758 667.790482243984"></path></g><g transform="translate(-118,-30) scale(1,1)"><path fill="none" stroke="#000000" d="M 914.8373251423759 676.209517756016 L 925 672 L 914.8373251423758 667.790482243984 L 914.8373251423759 676.209517756016" stroke-miterlimit="10"></path></g><g transform="translate(-118,-30) scale(1,1)"><g><path fill="none" stroke="none"></path><text fill="#000000" stroke="none" font-family="Arial" font-size="13px" font-style="normal" font-weight="normal" text-decoration="none" x="610.5" y="668.5">18 : Close door</text></g></g><g transform="translate(-118,-30) scale(1,1)"><rect fill="#ffffff" stroke="none" x="925" y="672" width="13" height="28"></rect></g><g transform="translate(-118,-30) scale(1,1)"><path fill="none" stroke="#000000" d="M 925 672 L 938 672 L 938 700 L 925 700 L 925 672 Z Z" stroke-miterlimit="10"></path></g><g transform="translate(-118,-30) scale(1,1)"><path fill="none" stroke="#000000" d="M 385 712 L 1111 712" stroke-miterlimit="10"></path></g><g transform="translate(-118,-30) scale(1,1)"><path fill="#000000" stroke="none" d="M 1100.837325142376 716.209517756016 L 1111 712 L 1100.837325142376 707.790482243984"></path></g><g transform="translate(-118,-30) scale(1,1)"><path fill="none" stroke="#000000" d="M 1100.837325142376 716.209517756016 L 1111 712 L 1100.837325142376 707.790482243984 L 1100.837325142376 716.209517756016" stroke-miterlimit="10"></path></g><g transform="translate(-118,-30) scale(1,1)"><g><path fill="none" stroke="none"></path><text fill="#000000" stroke="none" font-family="Arial" font-size="13px" font-style="normal" font-weight="normal" text-decoration="none" x="642.5" y="707.5">19 : Set motor direction up and start</text></g></g><g transform="translate(-118,-30) scale(1,1)"><rect fill="#ffffff" stroke="none" x="1111" y="712" width="13" height="28"></rect></g><g transform="translate(-118,-30) scale(1,1)"><path fill="none" stroke="#000000" d="M 1111 712 L 1124 712 L 1124 740 L 1111 740 L 1111 712 Z Z" stroke-miterlimit="10"></path></g><g transform="translate(-118,-30) scale(1,1)"><path fill="none" stroke="#000000" d="M 385 856 L 925 856" stroke-miterlimit="10"></path></g><g transform="translate(-118,-30) scale(1,1)"><path fill="#000000" stroke="none" d="M 914.8373251423759 860.209517756016 L 925 856 L 914.8373251423758 851.790482243984"></path></g><g transform="translate(-118,-30) scale(1,1)"><path fill="none" stroke="#000000" d="M 914.8373251423759 860.209517756016 L 925 856 L 914.8373251423758 851.790482243984 L 914.8373251423759 860.209517756016" stroke-miterlimit="10"></path></g><g transform="translate(-118,-30) scale(1,1)"><g><path fill="none" stroke="none"></path><text fill="#000000" stroke="none" font-family="Arial" font-size="13px" font-style="normal" font-weight="normal" text-decoration="none" x="611.5" y="852.5">23 : Open door</text></g></g><g transform="translate(-118,-30) scale(1,1)"><rect fill="#ffffff" stroke="none" x="925" y="856" width="13" height="28"></rect></g><g transform="translate(-118,-30) scale(1,1)"><path fill="none" stroke="#000000" d="M 925 856 L 938 856 L 938 884 L 925 884 L 925 856 Z Z" stroke-miterlimit="10"></path></g><g transform="translate(-118,-30) scale(1,1)"><path fill="none" stroke="#000000" d="M 385 816 L 1111 816" stroke-miterlimit="10"></path></g><g transform="translate(-118,-30) scale(1,1)"><path fill="#000000" stroke="none" d="M 1100.837325142376 820.209517756016 L 1111 816 L 1100.837325142376 811.790482243984"></path></g><g transform="translate(-118,-30) scale(1,1)"><path fill="none" stroke="#000000" d="M 1100.837325142376 820.209517756016 L 1111 816 L 1100.837325142376 811.790482243984 L 1100.837325142376 820.209517756016" stroke-miterlimit="10"></path></g><g transform="translate(-118,-30) scale(1,1)"><g><path fill="none" stroke="none"></path><text fill="#000000" stroke="none" font-family="Arial" font-size="13px" font-style="normal" font-weight="normal" text-decoration="none" x="620.5" y="811.5">22 : Stop motor</text></g></g><g transform="translate(-118,-30) scale(1,1)"><rect fill="#ffffff" stroke="none" x="1111" y="816" width="13" height="28"></rect></g><g transform="translate(-118,-30) scale(1,1)"><path fill="none" stroke="#000000" d="M 1111 816 L 1124 816 L 1124 844 L 1111 844 L 1111 816 Z Z" stroke-miterlimit="10"></path></g><g transform="translate(-118,-30) scale(1,1)"><path fill="none" stroke="#000000" d="M 750 776 L 385 776" stroke-miterlimit="10" stroke-dasharray="3"></path></g><g transform="translate(-118,-30) scale(1,1)"><path fill="none" stroke="#000000" d="M 395.16267485762415 771.790482243984 L 385 776 L 395.16267485762415 780.209517756016" stroke-miterlimit="10"></path></g><g transform="translate(-118,-30) scale(1,1)"><g><path fill="none" stroke="none"></path><text fill="#000000" stroke="none" font-family="Arial" font-size="13px" font-style="normal" font-weight="normal" text-decoration="none" x="428.5" y="771.5">21 : ArrivalStatus</text></g></g><g transform="translate(-118,-30) scale(1,1)"><path fill="none" stroke="#000000" d="M 385 896 L 1111 896" stroke-miterlimit="10"></path></g><g transform="translate(-118,-30) scale(1,1)"><path fill="#000000" stroke="none" d="M 1100.837325142376 900.209517756016 L 1111 896 L 1100.837325142376 891.790482243984"></path></g><g transform="translate(-118,-30) scale(1,1)"><path fill="none" stroke="#000000" d="M 1100.837325142376 900.209517756016 L 1111 896 L 1100.837325142376 891.790482243984 L 1100.837325142376 900.209517756016" stroke-miterlimit="10"></path></g><g transform="translate(-118,-30) scale(1,1)"><g><path fill="none" stroke="none"></path><text fill="#000000" stroke="none" font-family="Arial" font-size="13px" font-style="normal" font-weight="normal" text-decoration="none" x="665.5" y="892.5">24 : Clear elevator order light</text></g></g><g transform="translate(-118,-30) scale(1,1)"><rect fill="#ffffff" stroke="none" x="1111" y="896" width="13" height="28"></rect></g><g transform="translate(-118,-30) scale(1,1)"><path fill="none" stroke="#000000" d="M 1111 896 L 1124 896 L 1124 924 L 1111 924 L 1111 896 Z Z" stroke-miterlimit="10"></path></g><g transform="translate(-118,-30) scale(1,1)"><path fill="none" stroke="#000000" d="M 385 752 L 750 752" stroke-miterlimit="10"></path></g><g transform="translate(-118,-30) scale(1,1)"><path fill="#000000" stroke="none" d="M 739.8373251423759 756.209517756016 L 750 752 L 739.8373251423758 747.790482243984"></path></g><g transform="translate(-118,-30) scale(1,1)"><path fill="none" stroke="#000000" d="M 739.8373251423759 756.209517756016 L 750 752 L 739.8373251423758 747.790482243984 L 739.8373251423759 756.209517756016" stroke-miterlimit="10"></path></g><g transform="translate(-118,-30) scale(1,1)"><g><path fill="none" stroke="none"></path><text fill="#000000" stroke="none" font-family="Arial" font-size="13px" font-style="normal" font-weight="normal" text-decoration="none" x="578.5" y="748.5">20 : Check if floor arrived</text></g></g><g transform="translate(-118,-30) scale(1,1)"><rect fill="#ffffff" stroke="none" x="750" y="752" width="13" height="28"></rect></g><g transform="translate(-118,-30) scale(1,1)"><path fill="none" stroke="#000000" d="M 750 752 L 763 752 L 763 780 L 750 780 L 750 752 Z Z" stroke-miterlimit="10"></path></g></g></svg>